<?xml version="1.0" encoding="UTF-8" standalone="no"?>
<!-- Created with Inkscape (http://www.inkscape.org/) -->

<svg
   xmlns:dc="http://purl.org/dc/elements/1.1/"
   xmlns:cc="http://creativecommons.org/ns#"
   xmlns:rdf="http://www.w3.org/1999/02/22-rdf-syntax-ns#"
   xmlns:svg="http://www.w3.org/2000/svg"
   xmlns="http://www.w3.org/2000/svg"
   xmlns:sodipodi="http://sodipodi.sourceforge.net/DTD/sodipodi-0.dtd"
   xmlns:inkscape="http://www.inkscape.org/namespaces/inkscape"
   width="210mm"
   height="297mm"
   id="svg2"
   version="1.1"
   inkscape:version="0.48.2 r9819"
   sodipodi:docname="Novo documento 1">
  <defs
     id="defs4">
    <clipPath
       id="clipPath3119"
       clipPathUnits="userSpaceOnUse">
      <path
         id="path3121"
         d="m 59.04,73.44 414.72,0 0,371.52 -414.72,0 0,-371.52 z" />
    </clipPath>
    <clipPath
       id="clipPath3001"
       clipPathUnits="userSpaceOnUse">
      <path
         id="path3003"
         d="m 59.04,73.44 414.72,0 0,371.52 -414.72,0 0,-371.52 z" />
    </clipPath>
  </defs>
  <sodipodi:namedview
     id="base"
     pagecolor="#ffffff"
     bordercolor="#666666"
     borderopacity="1.0"
     inkscape:pageopacity="0.0"
     inkscape:pageshadow="2"
     inkscape:zoom="0.35"
     inkscape:cx="914.33807"
     inkscape:cy="608.60374"
     inkscape:document-units="px"
     inkscape:current-layer="layer1"
     showgrid="false"
     inkscape:window-width="1280"
     inkscape:window-height="704"
     inkscape:window-x="0"
     inkscape:window-y="25"
     inkscape:window-maximized="1" />
  <metadata
     id="metadata7">
    <rdf:RDF>
      <cc:Work
         rdf:about="">
        <dc:format>image/svg+xml</dc:format>
        <dc:type
           rdf:resource="http://purl.org/dc/dcmitype/StillImage" />
        <dc:title></dc:title>
      </cc:Work>
    </rdf:RDF>
  </metadata>
  <g
     inkscape:label="Camada 1"
     inkscape:groupmode="layer"
     id="layer1">
    <g
       transform="matrix(1.25,0,0,-1.25,30.505804,694.88227)"
       inkscape:label="fig17"
       id="g2993">
      <g
         id="g2995" />
      <g
         id="g2997">
        <g
           clip-path="url(#clipPath3001)"
           id="g2999">
          <path
             id="path3005"
             style="fill:none;stroke:#000000;stroke-width:0.75;stroke-linecap:round;stroke-linejoin:round;stroke-miterlimit:10;stroke-opacity:1;stroke-dasharray:none"
             d="m 74.4,87.2 2.95,0 2.96,0 2.95,0 2.96,0 2.95,0 2.95,0 2.96,0 2.95,0 2.95,0 2.96,0 2.95,0 2.96,0 2.95,0 2.95,0 2.96,0 2.95,0 2.96,0 2.95,0 2.95,0 2.96,0 2.95,0 2.95,0 2.96,0 2.95,0 2.96,0 2.95,0 2.95,0 2.96,0 2.95,0 2.96,0 2.95,181 2.95,8 2.96,7.62 2.95,7.25 2.95,6.89 2.96,6.55 2.95,6.24 2.96,5.93 2.95,5.64 2.95,5.37 2.96,5.1 2.95,4.86 2.96,4.62 2.95,4.39 2.95,4.18 2.96,3.98 2.95,3.78 2.95,3.6 2.96,3.42 2.95,3.25 2.96,3.1 2.95,2.95 2.95,2.8 2.96,2.66 2.95,2.54 2.96,2.41 2.95,2.29 2.95,2.18 2.96,2.08 2.95,1.97 2.95,1.88 2.96,1.79 2.95,1.7 2.96,1.62 2.95,1.53 2.95,1.47 2.96,1.39 2.95,1.32 2.96,1.26 2.95,1.2 2.95,1.14 2.96,1.08 2.95,1.03 2.95,0.98 2.96,0.93 2.95,0.89 2.96,0.84 2.95,0.81 2.95,0.76 2.96,0.73 2.95,0.69 2.96,0.65 2.95,0.63 2.95,0.59 2.96,0.57 2.95,0.54 2.95,0.51 2.96,0.49 2.95,0.46 2.96,0.44 2.95,0.42 2.95,0.4 2.96,0.38 2.95,0.36 2.96,0.34 2.95,0.33 2.95,0.31 2.96,0.29 2.95,0.28 2.95,0.27 2.96,0.26 2.95,0.24 2.96,0.23 2.95,0.22 2.95,0.2 2.96,0.2 2.95,0.19 2.96,0.18 2.95,0.17 2.95,0.16 2.96,0.16 2.95,0.14 2.95,0.14 2.96,0.13 2.95,0.13 2.96,0.12 2.95,0.12 2.95,0.1 2.96,0.11 2.95,0.1 2.96,0.09 2.95,0.09 2.95,0.08 2.96,0.08 2.95,0.08 2.95,0.07 2.96,0.07 2.95,0.07 2.96,0.06 2.95,0.06"
             inkscape:connector-curvature="0" />
        </g>
      </g>
      <g
         id="g3007">
        <path
           id="path3009"
           style="fill:none;stroke:#000000;stroke-width:0.75;stroke-linecap:round;stroke-linejoin:round;stroke-miterlimit:10;stroke-opacity:1;stroke-dasharray:none"
           d="m 103.94,73.44 354.46,0"
           inkscape:connector-curvature="0" />
        <path
           id="path3011"
           style="fill:none;stroke:#000000;stroke-width:0.75;stroke-linecap:round;stroke-linejoin:round;stroke-miterlimit:10;stroke-opacity:1;stroke-dasharray:none"
           d="m 103.94,73.44 0,-7.2"
           inkscape:connector-curvature="0" />
        <path
           id="path3013"
           style="fill:none;stroke:#000000;stroke-width:0.75;stroke-linecap:round;stroke-linejoin:round;stroke-miterlimit:10;stroke-opacity:1;stroke-dasharray:none"
           d="m 163.02,73.44 0,-7.2"
           inkscape:connector-curvature="0" />
        <path
           id="path3015"
           style="fill:none;stroke:#000000;stroke-width:0.75;stroke-linecap:round;stroke-linejoin:round;stroke-miterlimit:10;stroke-opacity:1;stroke-dasharray:none"
           d="m 222.09,73.44 0,-7.2"
           inkscape:connector-curvature="0" />
        <path
           id="path3017"
           style="fill:none;stroke:#000000;stroke-width:0.75;stroke-linecap:round;stroke-linejoin:round;stroke-miterlimit:10;stroke-opacity:1;stroke-dasharray:none"
           d="m 281.17,73.44 0,-7.2"
           inkscape:connector-curvature="0" />
        <path
           id="path3019"
           style="fill:none;stroke:#000000;stroke-width:0.75;stroke-linecap:round;stroke-linejoin:round;stroke-miterlimit:10;stroke-opacity:1;stroke-dasharray:none"
           d="m 340.25,73.44 0,-7.2"
           inkscape:connector-curvature="0" />
        <path
           id="path3021"
           style="fill:none;stroke:#000000;stroke-width:0.75;stroke-linecap:round;stroke-linejoin:round;stroke-miterlimit:10;stroke-opacity:1;stroke-dasharray:none"
           d="m 399.32,73.44 0,-7.2"
           inkscape:connector-curvature="0" />
        <path
           id="path3023"
           style="fill:none;stroke:#000000;stroke-width:0.75;stroke-linecap:round;stroke-linejoin:round;stroke-miterlimit:10;stroke-opacity:1;stroke-dasharray:none"
           d="m 458.4,73.44 0,-7.2"
           inkscape:connector-curvature="0" />
        <text
           id="text3025"
           transform="matrix(1,0,0,-1,97.1,47.52)">
          <tspan
             id="tspan3027"
             sodipodi:role="line"
             y="0"
             x="0 7.0079999"
             style="font-size:12px;font-variant:normal;font-weight:normal;writing-mode:lr-tb;fill:#000000;fill-opacity:1;fill-rule:nonzero;stroke:none;font-family:Helvetica;-inkscape-font-specification:Helvetica">−2</tspan>
        </text>
        <text
           id="text3029"
           transform="matrix(1,0,0,-1,159.68,47.52)">
          <tspan
             id="tspan3031"
             y="0"
             x="0"
             style="font-size:12px;font-variant:normal;font-weight:normal;writing-mode:lr-tb;fill:#000000;fill-opacity:1;fill-rule:nonzero;stroke:none;font-family:Helvetica;-inkscape-font-specification:Helvetica">0</tspan>
        </text>
        <text
           id="text3033"
           transform="matrix(1,0,0,-1,218.76,47.52)">
          <tspan
             id="tspan3035"
             y="0"
             x="0"
             style="font-size:12px;font-variant:normal;font-weight:normal;writing-mode:lr-tb;fill:#000000;fill-opacity:1;fill-rule:nonzero;stroke:none;font-family:Helvetica;-inkscape-font-specification:Helvetica">2</tspan>
        </text>
        <text
           id="text3037"
           transform="matrix(1,0,0,-1,277.83,47.52)">
          <tspan
             id="tspan3039"
             y="0"
             x="0"
             style="font-size:12px;font-variant:normal;font-weight:normal;writing-mode:lr-tb;fill:#000000;fill-opacity:1;fill-rule:nonzero;stroke:none;font-family:Helvetica;-inkscape-font-specification:Helvetica">4</tspan>
        </text>
        <text
           id="text3041"
           transform="matrix(1,0,0,-1,336.91,47.52)">
          <tspan
             id="tspan3043"
             y="0"
             x="0"
             style="font-size:12px;font-variant:normal;font-weight:normal;writing-mode:lr-tb;fill:#000000;fill-opacity:1;fill-rule:nonzero;stroke:none;font-family:Helvetica;-inkscape-font-specification:Helvetica">6</tspan>
        </text>
        <text
           id="text3045"
           transform="matrix(1,0,0,-1,395.99,47.52)">
          <tspan
             id="tspan3047"
             y="0"
             x="0"
             style="font-size:12px;font-variant:normal;font-weight:normal;writing-mode:lr-tb;fill:#000000;fill-opacity:1;fill-rule:nonzero;stroke:none;font-family:Helvetica;-inkscape-font-specification:Helvetica">8</tspan>
        </text>
        <text
           id="text3049"
           transform="matrix(1,0,0,-1,451.73,47.52)">
          <tspan
             id="tspan3051"
             sodipodi:role="line"
             y="0"
             x="0 6.6719999"
             style="font-size:12px;font-variant:normal;font-weight:normal;writing-mode:lr-tb;fill:#000000;fill-opacity:1;fill-rule:nonzero;stroke:none;font-family:Helvetica;-inkscape-font-specification:Helvetica">10</tspan>
        </text>
        <path
           id="path3053"
           style="fill:none;stroke:#000000;stroke-width:0.75;stroke-linecap:round;stroke-linejoin:round;stroke-miterlimit:10;stroke-opacity:1;stroke-dasharray:none"
           d="m 59.04,87.2 0,345.16"
           inkscape:connector-curvature="0" />
        <path
           id="path3055"
           style="fill:none;stroke:#000000;stroke-width:0.75;stroke-linecap:round;stroke-linejoin:round;stroke-miterlimit:10;stroke-opacity:1;stroke-dasharray:none"
           d="m 59.04,87.2 -7.2,0"
           inkscape:connector-curvature="0" />
        <path
           id="path3057"
           style="fill:none;stroke:#000000;stroke-width:0.75;stroke-linecap:round;stroke-linejoin:round;stroke-miterlimit:10;stroke-opacity:1;stroke-dasharray:none"
           d="m 59.04,156.23 -7.2,0"
           inkscape:connector-curvature="0" />
        <path
           id="path3059"
           style="fill:none;stroke:#000000;stroke-width:0.75;stroke-linecap:round;stroke-linejoin:round;stroke-miterlimit:10;stroke-opacity:1;stroke-dasharray:none"
           d="m 59.04,225.27 -7.2,0"
           inkscape:connector-curvature="0" />
        <path
           id="path3061"
           style="fill:none;stroke:#000000;stroke-width:0.75;stroke-linecap:round;stroke-linejoin:round;stroke-miterlimit:10;stroke-opacity:1;stroke-dasharray:none"
           d="m 59.04,294.3 -7.2,0"
           inkscape:connector-curvature="0" />
        <path
           id="path3063"
           style="fill:none;stroke:#000000;stroke-width:0.75;stroke-linecap:round;stroke-linejoin:round;stroke-miterlimit:10;stroke-opacity:1;stroke-dasharray:none"
           d="m 59.04,363.33 -7.2,0"
           inkscape:connector-curvature="0" />
        <path
           id="path3065"
           style="fill:none;stroke:#000000;stroke-width:0.75;stroke-linecap:round;stroke-linejoin:round;stroke-miterlimit:10;stroke-opacity:1;stroke-dasharray:none"
           d="m 59.04,432.36 -7.2,0"
           inkscape:connector-curvature="0" />
        <text
           id="text3067"
           transform="matrix(0,1,1,0,41.76,78.86)">
          <tspan
             id="tspan3069"
             sodipodi:role="line"
             y="0"
             x="0 6.6719999 10.008"
             style="font-size:12px;font-variant:normal;font-weight:normal;writing-mode:lr-tb;fill:#000000;fill-opacity:1;fill-rule:nonzero;stroke:none;font-family:Helvetica;-inkscape-font-specification:Helvetica">0.0</tspan>
        </text>
        <text
           id="text3071"
           transform="matrix(0,1,1,0,41.76,147.89)">
          <tspan
             id="tspan3073"
             sodipodi:role="line"
             y="0"
             x="0 6.6719999 10.008"
             style="font-size:12px;font-variant:normal;font-weight:normal;writing-mode:lr-tb;fill:#000000;fill-opacity:1;fill-rule:nonzero;stroke:none;font-family:Helvetica;-inkscape-font-specification:Helvetica">0.2</tspan>
        </text>
        <text
           id="text3075"
           transform="matrix(0,1,1,0,41.76,216.93)">
          <tspan
             id="tspan3077"
             sodipodi:role="line"
             y="0"
             x="0 6.6719999 10.008"
             style="font-size:12px;font-variant:normal;font-weight:normal;writing-mode:lr-tb;fill:#000000;fill-opacity:1;fill-rule:nonzero;stroke:none;font-family:Helvetica;-inkscape-font-specification:Helvetica">0.4</tspan>
        </text>
        <text
           id="text3079"
           transform="matrix(0,1,1,0,41.76,285.96)">
          <tspan
             id="tspan3081"
             sodipodi:role="line"
             y="0"
             x="0 6.6719999 10.008"
             style="font-size:12px;font-variant:normal;font-weight:normal;writing-mode:lr-tb;fill:#000000;fill-opacity:1;fill-rule:nonzero;stroke:none;font-family:Helvetica;-inkscape-font-specification:Helvetica">0.6</tspan>
        </text>
        <text
           id="text3083"
           transform="matrix(0,1,1,0,41.76,354.99)">
          <tspan
             id="tspan3085"
             sodipodi:role="line"
             y="0"
             x="0 6.6719999 10.008"
             style="font-size:12px;font-variant:normal;font-weight:normal;writing-mode:lr-tb;fill:#000000;fill-opacity:1;fill-rule:nonzero;stroke:none;font-family:Helvetica;-inkscape-font-specification:Helvetica">0.8</tspan>
        </text>
        <text
           id="text3087"
           transform="matrix(0,1,1,0,41.76,424.02)">
          <tspan
             id="tspan3089"
             sodipodi:role="line"
             y="0"
             x="0 6.6719999 10.008"
             style="font-size:12px;font-variant:normal;font-weight:normal;writing-mode:lr-tb;fill:#000000;fill-opacity:1;fill-rule:nonzero;stroke:none;font-family:Helvetica;-inkscape-font-specification:Helvetica">1.0</tspan>
        </text>
        <path
           id="path3091"
           style="fill:none;stroke:#000000;stroke-width:0.75;stroke-linecap:round;stroke-linejoin:round;stroke-miterlimit:10;stroke-opacity:1;stroke-dasharray:none"
           d="m 59.04,73.44 414.72,0 0,371.52 -414.72,0 0,-371.52"
           inkscape:connector-curvature="0" />
      </g>
      <g
         id="g3093">
        <text
           id="text3095"
           transform="matrix(1,0,0,-1,263.4,15.84)">
          <tspan
             id="tspan3097"
             y="0"
             x="0"
             style="font-size:12px;font-style:oblique;font-variant:normal;writing-mode:lr-tb;fill:#000000;fill-opacity:1;fill-rule:nonzero;stroke:none;font-family:Helvetica;-inkscape-font-specification:Helvetica-Oblique">x</tspan>
        </text>
        <text
           id="text3099"
           transform="matrix(0,1,1,0,12.97,246.42)">
          <tspan
             id="tspan3101"
             y="0"
             x="0"
             style="font-size:12px;font-style:oblique;font-variant:normal;writing-mode:lr-tb;fill:#000000;fill-opacity:1;fill-rule:nonzero;stroke:none;font-family:Helvetica;-inkscape-font-specification:Helvetica-Oblique">F</tspan>
        </text>
        <text
           id="text3103"
           transform="matrix(0,1,1,0,12.97,255.05)">
          <tspan
             id="tspan3105"
             y="0"
             x="0"
             style="font-size:15px;font-variant:normal;font-weight:normal;writing-mode:lr-tb;fill:#000000;fill-opacity:1;fill-rule:nonzero;stroke:none;font-family:Symbol;-inkscape-font-specification:Symbol">(</tspan>
        </text>
        <text
           id="text3107"
           transform="matrix(0,1,1,0,12.97,260.04)">
          <tspan
             id="tspan3109"
             y="0"
             x="0"
             style="font-size:12px;font-style:oblique;font-variant:normal;writing-mode:lr-tb;fill:#000000;fill-opacity:1;fill-rule:nonzero;stroke:none;font-family:Helvetica;-inkscape-font-specification:Helvetica-Oblique">x</tspan>
        </text>
        <text
           id="text3111"
           transform="matrix(0,1,1,0,12.97,266.98)">
          <tspan
             id="tspan3113"
             y="0"
             x="0"
             style="font-size:15px;font-variant:normal;font-weight:normal;writing-mode:lr-tb;fill:#000000;fill-opacity:1;fill-rule:nonzero;stroke:none;font-family:Symbol;-inkscape-font-specification:Symbol">)</tspan>
        </text>
      </g>
      <g
         id="g3115">
        <g
           clip-path="url(#clipPath3119)"
           id="g3117">
          <path
             id="path3123"
             style="fill:none;stroke:#ffffff;stroke-width:2.25;stroke-linecap:round;stroke-linejoin:round;stroke-miterlimit:10;stroke-opacity:1;stroke-dasharray:none"
             d="M 163.13,94.4 165.85,261"
             inkscape:connector-curvature="0" />
          <text
             id="text3125"
             transform="matrix(1,0,0,-1,157.68,85.98)">
            <tspan
               id="tspan3127"
               y="0"
               x="0"
               style="font-size:13.46000004px;font-variant:normal;font-weight:normal;writing-mode:lr-tb;fill:#ffffff;fill-opacity:1;fill-rule:nonzero;stroke:#ffffff;stroke-width:0.75;stroke-linecap:round;stroke-linejoin:round;stroke-miterlimit:10;stroke-opacity:1;stroke-dasharray:none;font-family:ZapfDingbats;-inkscape-font-specification:ZapfDingbats">q</tspan>
          </text>
          <text
             id="text3129"
             transform="matrix(1,0,0,-1,160.05,84.6)">
            <tspan
               id="tspan3131"
               y="0"
               x="0"
               style="font-size:7.48000002px;font-variant:normal;font-weight:normal;writing-mode:lr-tb;fill:none;stroke:#000000;stroke-width:0.75;stroke-linecap:round;stroke-linejoin:round;stroke-miterlimit:10;stroke-opacity:1;stroke-dasharray:none;font-family:ZapfDingbats;-inkscape-font-specification:ZapfDingbats">q</tspan>
          </text>
          <text
             id="text3133"
             transform="matrix(1,0,0,-1,160.64,262.01)">
            <tspan
               id="tspan3135"
               y="0"
               x="0"
               style="font-size:13.46000004px;font-variant:normal;font-weight:normal;writing-mode:lr-tb;fill:#ffffff;fill-opacity:1;fill-rule:nonzero;stroke:#ffffff;stroke-width:0.75;stroke-linecap:round;stroke-linejoin:round;stroke-miterlimit:10;stroke-opacity:1;stroke-dasharray:none;font-family:ZapfDingbats;-inkscape-font-specification:ZapfDingbats">q</tspan>
          </text>
          <text
             id="text3137"
             transform="matrix(1,0,0,-1,163.01,267.54)">
            <tspan
               id="tspan3139"
               y="0"
               x="0"
               style="font-size:7.48000002px;font-variant:normal;font-weight:normal;writing-mode:lr-tb;fill:#000000;fill-opacity:1;fill-rule:nonzero;stroke:#000000;stroke-width:0.75;stroke-linecap:round;stroke-linejoin:round;stroke-miterlimit:10;stroke-opacity:1;stroke-dasharray:none;font-family:ZapfDingbats;-inkscape-font-specification:ZapfDingbats">q</tspan>
          </text>
          <path
             id="path3141"
             style="fill:none;stroke:#000000;stroke-width:0.75;stroke-linecap:round;stroke-linejoin:round;stroke-miterlimit:10;stroke-opacity:1;stroke-dasharray:0, 3;stroke-dashoffset:0"
             d="m 59.04,432.36 414.72,0"
             inkscape:connector-curvature="0" />
        </g>
      </g>
    </g>
    <rect
       style="fill:#ffffff;stroke:#ffffff;stroke-width:2;stroke-miterlimit:4;stroke-dasharray:none;stroke-dashoffset:0"
       id="rect3218"
       width="48.831528"
       height="220.37511"
       x="220.1216"
       y="362.01361" />
  </g>
</svg>
