<?xml version="1.0" encoding="UTF-8" standalone="no"?>
<!-- Created with Inkscape (http://www.inkscape.org/) -->

<svg
   xmlns:dc="http://purl.org/dc/elements/1.1/"
   xmlns:cc="http://creativecommons.org/ns#"
   xmlns:rdf="http://www.w3.org/1999/02/22-rdf-syntax-ns#"
   xmlns:svg="http://www.w3.org/2000/svg"
   xmlns="http://www.w3.org/2000/svg"
   xmlns:xlink="http://www.w3.org/1999/xlink"
   xmlns:sodipodi="http://sodipodi.sourceforge.net/DTD/sodipodi-0.dtd"
   xmlns:inkscape="http://www.inkscape.org/namespaces/inkscape"
   width="210mm"
   height="297mm"
   id="svg2"
   version="1.1"
   inkscape:version="0.48.2 r9819"
   sodipodi:docname="Novo documento 1">
  <sodipodi:namedview
     id="base"
     pagecolor="#ffffff"
     bordercolor="#666666"
     borderopacity="1.0"
     inkscape:pageopacity="0.0"
     inkscape:pageshadow="2"
     inkscape:zoom="0.7"
     inkscape:cx="349.51805"
     inkscape:cy="501.41339"
     inkscape:document-units="px"
     inkscape:current-layer="layer1"
     showgrid="false"
     inkscape:window-width="1280"
     inkscape:window-height="704"
     inkscape:window-x="0"
     inkscape:window-y="25"
     inkscape:window-maximized="1" />
  <defs
     id="defs4">
    <defs
       id="defs3050">
      <g
         id="g3052">
        <symbol
           style="overflow:visible"
           overflow="visible"
           id="textext-002e61de-0">
          <path
             inkscape:connector-curvature="0"
             style="stroke:none"
             d="M 1.78125,-1.140625 C 1.390625,-0.484375 1,-0.34375 0.5625,-0.3125 0.4375,-0.296875 0.34375,-0.296875 0.34375,-0.109375 0.34375,-0.046875 0.40625,0 0.484375,0 0.75,0 1.0625,-0.03125 1.328125,-0.03125 c 0.34375,0 0.6875,0.03125 1,0.03125 0.0625,0 0.1875,0 0.1875,-0.1875 0,-0.109375 -0.078125,-0.125 -0.15625,-0.125 -0.21875,-0.015625 -0.46875,-0.09375 -0.46875,-0.34375 0,-0.125 0.0625,-0.234375 0.140625,-0.375 l 0.765625,-1.265625 2.5,0 c 0.015625,0.203125 0.15625,1.5625 0.15625,1.65625 0,0.296875 -0.515625,0.328125 -0.71875,0.328125 C 4.59375,-0.3125 4.5,-0.3125 4.5,-0.109375 4.5,0 4.609375,0 4.640625,0 5.046875,0 5.46875,-0.03125 5.875,-0.03125 6.125,-0.03125 6.765625,0 7.015625,0 7.0625,0 7.1875,0 7.1875,-0.203125 7.1875,-0.3125 7.09375,-0.3125 6.953125,-0.3125 6.34375,-0.3125 6.34375,-0.375 6.3125,-0.671875 l -0.609375,-6.21875 c -0.015625,-0.203125 -0.015625,-0.25 -0.1875,-0.25 -0.15625,0 -0.203125,0.078125 -0.265625,0.171875 z M 2.984375,-2.609375 4.9375,-5.90625 5.265625,-2.609375 z m 0,0"
             id="path3055" />
        </symbol>
        <symbol
           style="overflow:visible"
           overflow="visible"
           id="textext-002e61de-1">
          <path
             inkscape:connector-curvature="0"
             style="stroke:none"
             d="M 1.59375,-0.78125 C 1.5,-0.390625 1.46875,-0.3125 0.6875,-0.3125 c -0.171875,0 -0.265625,0 -0.265625,0.203125 C 0.421875,0 0.515625,0 0.6875,0 L 4.25,0 C 5.828125,0 7,-1.171875 7,-2.15625 7,-2.875 6.421875,-3.453125 5.453125,-3.5625 6.484375,-3.75 7.53125,-4.484375 7.53125,-5.4375 c 0,-0.734375 -0.65625,-1.375 -1.84375,-1.375 l -3.359375,0 c -0.1875,0 -0.28125,0 -0.28125,0.203125 0,0.109375 0.09375,0.109375 0.28125,0.109375 0.015625,0 0.203125,0 0.375,0.015625 0.171875,0.03125 0.265625,0.03125 0.265625,0.171875 0,0.03125 -0.015625,0.0625 -0.03125,0.1875 z m 1.5,-2.875 0.625,-2.46875 C 3.8125,-6.46875 3.828125,-6.5 4.25,-6.5 l 1.296875,0 c 0.875,0 1.078125,0.59375 1.078125,1.03125 0,0.875 -0.859375,1.8125 -2.0625,1.8125 z m -0.4375,3.34375 c -0.140625,0 -0.15625,0 -0.21875,0 -0.109375,-0.015625 -0.140625,-0.03125 -0.140625,-0.109375 0,-0.03125 0,-0.046875 0.0625,-0.21875 l 0.6875,-2.78125 1.875,0 c 0.953125,0 1.15625,0.734375 1.15625,1.15625 C 6.078125,-1.28125 5.1875,-0.3125 4,-0.3125 z m 0,0"
             id="path3058" />
        </symbol>
        <symbol
           style="overflow:visible"
           overflow="visible"
           id="textext-002e61de-2">
          <path
             inkscape:connector-curvature="0"
             style="stroke:none"
             d="m 7.578125,-6.921875 c 0,-0.03125 -0.015625,-0.109375 -0.109375,-0.109375 -0.03125,0 -0.046875,0.015625 -0.15625,0.125 L 6.625,-6.140625 C 6.53125,-6.28125 6.078125,-7.03125 4.96875,-7.03125 2.734375,-7.03125 0.5,-4.828125 0.5,-2.515625 0.5,-0.875 1.671875,0.21875 3.203125,0.21875 c 0.859375,0 1.625,-0.390625 2.15625,-0.859375 0.921875,-0.8125 1.09375,-1.71875 1.09375,-1.75 C 6.453125,-2.5 6.34375,-2.5 6.328125,-2.5 c -0.0625,0 -0.109375,0.03125 -0.125,0.109375 -0.09375,0.28125 -0.328125,1 -1.015625,1.578125 -0.6875,0.546875 -1.3125,0.71875 -1.828125,0.71875 -0.890625,0 -1.953125,-0.515625 -1.953125,-2.0625 0,-0.578125 0.203125,-2.1875 1.203125,-3.359375 0.609375,-0.703125 1.546875,-1.203125 2.4375,-1.203125 1.015625,0 1.609375,0.765625 1.609375,1.921875 0,0.40625 -0.03125,0.40625 -0.03125,0.515625 0,0.09375 0.109375,0.09375 0.140625,0.09375 0.125,0 0.125,-0.015625 0.1875,-0.203125 z m 0,0"
             id="path3061" />
        </symbol>
      </g>
    </defs>
  </defs>
  <metadata
     id="metadata7">
    <rdf:RDF>
      <cc:Work
         rdf:about="">
        <dc:format>image/svg+xml</dc:format>
        <dc:type
           rdf:resource="http://purl.org/dc/dcmitype/StillImage" />
        <dc:title></dc:title>
      </cc:Work>
    </rdf:RDF>
  </metadata>
  <g
     id="layer1"
     inkscape:groupmode="layer"
     inkscape:label="Camada 1">
    <path
       style="fill:#bebebe"
       d="m 86.22134,577.33134 0,-69.67035 78.23943,0 78.23944,0 0,69.67035 0,69.67036 -78.23944,0 -78.23943,0 0,-69.67036 z m 155.73373,0 0,-68.92521 -77.4943,0 -77.49429,0 0,68.92521 0,68.92522 77.49429,0 77.4943,0 0,-68.92522 z M 94.69162,635.45051 c 1.24113,-2.66472 2.47999,-4.59276 2.75303,-4.28454 0.27305,0.30822 1.36172,2.48845 2.41929,4.84495 l 1.92284,4.28454 -1.73883,0 c -1.19869,0 -1.70668,-0.40507 -1.63533,-1.30399 0.0731,-0.92177 -0.44255,-1.30399 -1.75936,-1.30399 -1.3168,0 -1.8325,0.38222 -1.75935,1.30399 0.0616,0.77642 -0.41485,1.30399 -1.17769,1.30399 -1.11148,0 -0.98228,-0.64177 0.9754,-4.84495 z m 2.97789,0.006 c -0.235,-0.61239 -0.72744,-0.92791 -1.09433,-0.70116 -1.05207,0.65022 -0.77791,1.81459 0.42727,1.81459 0.66472,0 0.92659,-0.4371 0.66706,-1.11343 z m 10.21156,-50.2298 c -2.01789,-2.83386 -2.00728,-7.71081 0.0286,-13.15219 1.83113,-4.89412 1.59547,-6.88574 -1.41986,-11.99975 -2.03278,-3.44775 -2.18553,-4.28635 -2.55784,-14.04351 -0.42713,-11.19335 -0.35792,-11.47965 3.89836,-16.12718 1.46689,-1.60174 2.65473,-2.08327 5.58853,-2.2655 3.21231,-0.19953 3.75849,-0.46244 3.96379,-1.90798 0.19791,-1.39347 0.70117,-1.67533 2.98055,-1.66928 1.50835,0.004 4.53613,0.84229 6.72841,1.86285 2.19227,1.02056 4.26825,1.85556 4.61328,1.85556 0.34503,0 2.37595,1.67656 4.51315,3.72569 2.82772,2.71119 4.47093,3.72569 6.03461,3.72569 2.39855,0 7.25823,-2.24578 8.75045,-4.0438 1.98561,-2.39251 5.06703,-1.47037 13.25076,3.96541 5.43732,3.61156 8.30894,6.44332 10.21644,10.07458 l 1.44044,2.74214 -2.18557,2.08822 c -1.83418,1.75245 -12.65204,7.23896 -16.80881,8.52494 -0.83635,0.25874 -1.37165,1.66252 -1.73113,4.53968 -0.6018,4.81669 -2.78246,7.89928 -7.17229,10.1388 -2.49574,1.27323 -3.80087,1.39458 -10.55457,0.98135 l -7.70667,-0.47153 -3.13675,3.74649 c -1.7252,2.06057 -3.13674,4.05492 -3.13674,4.4319 0,1.26532 -8.79344,5.44144 -11.45778,5.44144 -2.01756,0 -2.9428,-0.48374 -4.13936,-2.16416 z m 160.89895,-8.64047 0,-69.67036 78.23944,0 78.23943,0 0,69.67036 0,69.67035 -78.23943,0 -78.23944,0 0,-69.67035 z m 155.73373,0 0,-68.92522 -77.49429,0 -77.4943,0 0,68.92522 0,68.92521 77.4943,0 77.49429,0 0,-68.92521 z M 276.79025,639.802 c 0.58173,-0.23473 0.93142,-1.86786 0.93142,-4.34991 0,-2.48204 -0.34969,-4.11517 -0.93142,-4.3499 -0.51228,-0.20671 0.62025,-0.40231 2.51674,-0.43466 3.77823,-0.0645 5.54506,1.21932 4.92762,3.58041 -0.20305,0.77646 -0.0984,1.84994 0.23263,2.38551 0.331,0.53557 0.27811,1.57862 -0.11754,2.3179 -0.55938,1.0452 -1.58356,1.33105 -4.60512,1.28531 -2.13716,-0.0323 -3.46661,-0.22795 -2.95433,-0.43466 z m 4.96873,-0.70394 c 2.24621,-0.86195 0.87389,-3.2734 -1.86284,-3.2734 -0.3763,0 -0.68419,0.83828 -0.68419,1.86285 0,1.91593 0.50345,2.19475 2.54703,1.41055 z m 0.0609,-5.88138 c 0,-0.80843 -0.5868,-1.58287 -1.30399,-1.72099 -0.97669,-0.18809 -1.30399,0.24388 -1.30399,1.72099 0,1.47712 0.3273,1.90909 1.30399,1.72099 0.71719,-0.13811 1.30399,-0.91256 1.30399,-1.72099 z m 31.48702,-37.50634 c -1.96077,-3.31931 -7.78955,-8.3215 -9.67511,-8.30304 -0.93126,0.009 -2.53148,0.67228 -3.55605,1.4737 -2.88596,2.25743 -6.02646,1.91767 -8.60919,-0.93142 -2.98055,-3.28793 -4.05814,-5.36734 -4.05814,-7.83092 0,-2.14752 -2.8417,-13.99902 -4.99977,-20.85194 -1.19718,-3.80162 -1.18834,-3.9524 0.32779,-5.58853 0.85699,-0.92482 1.94647,-3.14397 2.42104,-4.93145 0.56667,-2.13432 1.35691,-3.37915 2.30204,-3.62631 1.8982,-0.49639 1.83831,-0.94463 -0.83337,-6.23718 -1.82384,-3.61302 -2.22842,-5.25898 -2.04913,-8.33643 0.19819,-3.40146 0.50323,-4.0226 2.70092,-5.49958 9.7445,-6.5489 24.52094,-4.54312 39.6679,5.38459 4.9924,3.27215 6.04356,3.66257 10.57534,3.92793 3.65405,0.21396 5.50629,-0.0162 6.76422,-0.8404 0.95276,-0.62427 5.39462,-2.19951 9.87081,-3.50054 10.10233,-2.93631 15.22278,-2.87582 18.90592,0.22334 1.31277,1.10462 2.81212,2.0084 3.3319,2.0084 0.51978,0 1.46744,0.58679 2.10592,1.30399 0.94309,1.05936 1.08481,2.60299 0.75545,8.22847 l -0.40543,6.92449 -2.87529,2.46114 c -2.87296,2.45916 -11.8203,5.67144 -15.79693,5.67144 -1.53602,0 -2.21798,0.72914 -3.79,4.05212 -1.05433,2.22866 -1.91696,4.41273 -1.91696,4.8535 0,0.44076 -0.31133,1.38364 -0.69185,2.09527 -0.38051,0.71163 -2.07295,5.14997 -3.76098,9.86296 -1.68802,4.713 -3.40612,9.43538 -3.818,10.49419 -0.9392,2.41437 -7.89846,5.03612 -15.76166,5.93787 -2.97024,0.34063 -7.53982,1.30947 -10.15462,2.15299 -2.6148,0.84351 -4.97352,1.53366 -5.24159,1.53366 -0.26807,0 -1.04891,-0.95054 -1.73518,-2.11231 z m 141.0123,-19.1241 0,-69.67036 78.23944,0 78.23943,0 0,69.67036 0,69.67035 -78.23943,0 -78.23944,0 0,-69.67035 z m 155.73373,0 0,-68.92522 -77.49429,0 -77.4943,0 0,68.92522 0,68.92521 77.4943,0 77.49429,0 0,-68.92521 z m -145.65615,61.95188 c -1.79263,-1.31081 -1.80726,-5.20742 -0.0269,-7.17466 0.91195,-1.0077 2.29758,-1.4999 4.22245,-1.4999 2.37919,0 2.86506,0.25565 2.86506,1.50745 0,1.41267 -0.11052,1.43504 -1.75785,0.35567 -2.15439,-1.41162 -4.07125,-0.78562 -4.64953,1.51841 -1.02068,4.06671 2.193,6.9077 4.9705,4.3941 1.54197,-1.39547 2.0337,-0.47399 0.54272,1.017 -1.1964,1.1964 -4.45407,1.13402 -6.16642,-0.11807 z m 97.59479,-4.69595 c -0.81966,-0.17564 -2.83342,-0.80381 -4.47503,-1.39593 -4.87042,-1.75673 -20.51512,-3.4276 -44.33148,-4.73466 -14.00739,-0.76873 -17.46741,-1.3111 -23.8444,-3.73769 -6.34671,-2.41506 -7.46157,-4.78659 -5.96893,-12.69724 0.5187,-2.74901 0.80362,-7.18861 0.63314,-9.86577 -0.27957,-4.39071 -0.60763,-5.22465 -3.34858,-8.51244 -2.87481,-3.44834 -6.39574,-10.51876 -8.46639,-17.00144 -1.34146,-4.19979 -0.38535,-15.76066 1.90276,-23.00734 1.08384,-3.43262 1.83553,-7.60848 1.83553,-10.19693 0,-3.78663 -1.40026,-12.46321 -2.6772,-16.58898 -0.2833,-0.91533 0.16614,-1.51995 1.50946,-2.03069 1.05209,-0.4 1.91288,-1.07088 1.91288,-1.49085 0,-0.45965 2.44698,-0.76358 6.14766,-0.76358 3.38121,0 8.49472,-0.49714 11.36334,-1.10477 6.66558,-1.41188 10.35701,-1.41452 13.29959,-0.01 2.87948,1.37486 5.4244,5.02423 6.10327,8.75196 0.49167,2.69988 0.61303,2.7938 3.59277,2.78063 3.67301,-0.0162 13.73364,-3.99892 18.65505,-7.38493 5.18478,-3.56723 6.81775,-3.07152 10.59242,3.21549 3.73494,6.22084 7.67665,10.52779 11.15154,12.18484 2.4455,1.16619 2.72802,1.15807 4.99266,-0.14344 3.04128,-1.74784 12.07528,-9.76375 22.09299,-19.6032 4.93506,-4.84724 8.04516,-7.38661 8.49538,-6.93638 0.39063,0.39063 0.85216,2.49036 1.02563,4.66607 0.17347,2.1757 0.77571,5.12942 1.33829,6.56381 6.15738,15.69888 7.77933,20.13556 8.20036,22.43126 0.48085,2.62184 0.40758,2.72719 -3.1094,4.47082 l -3.60185,1.78571 0.18364,5.21597 c 0.65535,18.61313 0.68155,18.29422 -1.89118,23.01787 -2.63665,4.84097 -2.91518,7.22221 -1.33688,11.42965 0.57961,1.54514 1.2473,6.41809 1.48375,10.82877 0.36905,6.88433 0.21994,8.57183 -1.05347,11.9222 -0.81585,2.14653 -1.48535,4.74106 -1.48776,5.76562 -0.003,1.25206 -1.20715,3.02334 -3.67267,5.40225 -2.01754,1.94667 -4.03215,3.5394 -4.47691,3.5394 -0.44476,0 -1.39089,0.28806 -2.10253,0.64012 -5.23259,2.58872 -14.98081,3.81192 -20.66745,2.59335 z"
       id="path3002"
       inkscape:connector-curvature="0" />
    <path
       style="fill:#575757"
       d="m 86.22134,577.33134 0,-69.67035 78.23943,0 78.23944,0 0,69.67035 0,69.67036 -78.23944,0 -78.23943,0 0,-69.67036 z m 155.73373,0 0,-68.92521 -77.4943,0 -77.49429,0 0,68.92521 0,68.92522 77.49429,0 77.4943,0 0,-68.92522 z M 94.91711,635.63835 c 1.03682,-2.56141 2.01776,-4.79531 2.17985,-4.96423 0.1621,-0.1689 0.65712,0.73246 1.10004,2.00304 0.44293,1.27058 1.41423,3.50448 2.15845,4.96422 1.31722,2.58366 1.31572,2.65408 -0.0568,2.65408 -0.9283,0 -1.40995,-0.526 -1.40995,-1.53977 0,-1.24015 -0.39874,-1.49389 -2.04913,-1.30399 -1.41641,0.16298 -2.01717,0.63841 -1.94564,1.53977 0.0569,0.71719 -0.33873,1.30399 -0.87922,1.30399 -0.71726,0 -0.47351,-1.25796 0.90242,-4.65711 z m 3.21502,0.37257 c -0.006,-0.30737 -0.30555,-1.02329 -0.66505,-1.59095 -0.52223,-0.82459 -0.8248,-0.71225 -1.50508,0.55886 -0.73976,1.38226 -0.65253,1.59094 0.66505,1.59094 0.83407,0 1.51135,-0.25148 1.50508,-0.55885 z m 9.74894,-50.78438 c -2.01789,-2.83385 -2.00728,-7.71081 0.0286,-13.15219 1.83113,-4.89412 1.59547,-6.88573 -1.41986,-11.99974 -2.03278,-3.44762 -2.18553,-4.28622 -2.55784,-14.04338 -0.42713,-11.19335 -0.35792,-11.47965 3.89836,-16.12718 1.46689,-1.60174 2.65473,-2.08327 5.58853,-2.2655 3.21231,-0.19953 3.75849,-0.46244 3.96379,-1.90798 0.19791,-1.39347 0.70117,-1.67533 2.98055,-1.66928 1.50835,0.004 4.53613,0.84229 6.72841,1.86285 2.19227,1.02056 4.26825,1.85556 4.61328,1.85556 0.34503,0 2.37595,1.67656 4.51315,3.72569 2.82772,2.71119 4.47093,3.72569 6.03461,3.72569 2.39855,0 7.25823,-2.24578 8.75045,-4.0438 1.98561,-2.39251 5.06703,-1.47037 13.25076,3.96541 5.43732,3.61156 8.30894,6.44332 10.21644,10.07458 l 1.44044,2.74214 -2.18557,2.08822 c -1.83418,1.75245 -12.65204,7.23896 -16.80881,8.52494 -0.83635,0.25874 -1.37165,1.66252 -1.73113,4.53968 -0.6018,4.81669 -2.78246,7.89928 -7.17229,10.1388 -2.49574,1.27323 -3.80087,1.39458 -10.55457,0.98135 l -7.70667,-0.47153 -3.13675,3.74649 c -1.7252,2.06057 -3.13674,4.05492 -3.13674,4.4319 0,1.26532 -8.79344,5.44144 -11.45778,5.44144 -2.01756,0 -2.9428,-0.48374 -4.13936,-2.16416 z m 10.11476,-0.38615 c 1.98623,-1.05735 5.10223,-3.87977 7.52176,-6.81307 l 4.13075,-5.00792 7.76479,0.4751 c 6.38463,0.39064 8.18716,0.25879 10.14112,-0.74182 4.27241,-2.18788 5.93569,-4.47046 6.81979,-9.35908 0.46533,-2.57306 1.30069,-4.7971 1.91642,-5.10222 0.60033,-0.29749 4.27697,-1.97004 8.17031,-3.71677 3.89335,-1.74674 7.86352,-3.91751 8.82261,-4.82393 l 1.74379,-1.64804 -1.55815,-3.05423 c -1.87823,-3.68166 -3.54441,-5.32657 -9.30237,-9.18367 -8.0408,-5.38631 -11.17885,-6.32374 -13.16355,-3.93232 -1.49635,1.80299 -6.3545,4.04379 -8.76711,4.04379 -1.56245,0 -3.28252,-1.0319 -6.17707,-3.70572 -2.20639,-2.03814 -4.34694,-3.71777 -4.75676,-3.7325 -0.40983,-0.0147 -2.4217,-0.8515 -4.47083,-1.85951 -4.90509,-2.41289 -8.37816,-2.49381 -8.70354,-0.20277 -0.20735,1.46001 -0.7838,1.72468 -4.46294,2.04913 -3.82825,0.33759 -4.44027,0.64448 -6.51995,3.26929 -1.26232,1.5932 -2.34258,3.26976 -2.40058,3.72569 -0.058,0.45593 -0.0185,5.33102 0.0878,10.83353 0.18456,9.55417 0.2898,10.16148 2.33769,13.48972 3.05192,4.96 3.33455,7.28792 1.485,12.23128 -4.28517,11.45315 0.22597,17.61836 9.34102,12.76604 z m 150.78419,-8.25418 0,-69.67036 78.23944,0 78.23943,0 0,69.67036 0,69.67035 -78.23943,0 -78.23944,0 0,-69.67035 z m 155.73373,0 0,-68.92522 -77.49429,0 -77.4943,0 0,68.92522 0,68.92521 77.4943,0 77.49429,0 0,-68.92521 z m -147.16465,58.86585 0,-4.84339 2.70303,0 c 3.35118,0 5.06814,1.70078 3.78735,3.75165 -0.55217,0.88417 -0.60399,1.56045 -0.14145,1.84632 1.15063,0.71113 0.85119,3.13769 -0.44877,3.63653 -0.64826,0.24876 -2.24099,0.45229 -3.53941,0.45229 l -2.36075,0 0,-4.8434 z m 5.21596,2.23542 c 0,-0.97817 -0.57612,-1.5721 -1.67656,-1.72839 -1.37528,-0.19532 -1.67655,0.11527 -1.67655,1.72839 0,1.61312 0.30127,1.9237 1.67655,1.72838 1.10044,-0.15628 1.67656,-0.75022 1.67656,-1.72838 z m -0.0416,-3.28588 c 0.72955,-1.18042 -0.4352,-3.04779 -1.90099,-3.04779 -1.00783,0 -1.41055,0.53185 -1.41055,1.86284 0,1.34721 0.40034,1.86285 1.44629,1.86285 0.79547,0 1.63483,-0.30506 1.86527,-0.6779 z m 30.78343,-38.69129 c -1.96076,-3.31931 -7.78954,-8.3215 -9.6751,-8.30304 -0.93126,0.009 -2.53148,0.67228 -3.55605,1.4737 -2.88596,2.25743 -6.02646,1.91767 -8.60919,-0.93142 -2.98055,-3.28793 -4.05815,-5.36734 -4.05815,-7.83092 0,-2.14752 -2.84169,-13.99902 -4.99976,-20.85194 -1.19719,-3.80162 -1.18834,-3.9524 0.32779,-5.58853 0.85699,-0.92482 1.94646,-3.14397 2.42104,-4.93145 0.56666,-2.13432 1.3569,-3.37915 2.30204,-3.62631 1.8982,-0.49639 1.8383,-0.94463 -0.83337,-6.23718 -1.82384,-3.61302 -2.22843,-5.25898 -2.04913,-8.33643 0.19818,-3.40146 0.50323,-4.0226 2.70092,-5.49958 9.7445,-6.5489 24.52094,-4.54312 39.6679,5.38459 4.99239,3.27215 6.04356,3.66257 10.57534,3.92793 3.65405,0.21396 5.50629,-0.0162 6.76422,-0.8404 0.95275,-0.62427 5.39462,-2.19951 9.87081,-3.50054 10.10233,-2.93631 15.22278,-2.87582 18.90592,0.22334 1.31279,1.10462 2.81214,2.0084 3.33192,2.0084 0.51978,0 1.46744,0.58679 2.10592,1.30399 0.94309,1.05936 1.08481,2.60299 0.75545,8.22847 l -0.40543,6.92449 -2.87529,2.46114 c -2.87296,2.45916 -11.8203,5.67144 -15.79693,5.67144 -1.53602,0 -2.21798,0.72914 -3.79,4.05212 -1.05433,2.22866 -1.91696,4.41273 -1.91696,4.8535 0,0.44076 -0.31133,1.38364 -0.69185,2.09527 -0.38051,0.71163 -2.07295,5.14997 -3.76098,9.86296 -1.68802,4.713 -3.40612,9.43538 -3.818,10.49419 -0.9392,2.41437 -7.89846,5.03612 -15.76166,5.93787 -2.97024,0.34063 -7.53982,1.30947 -10.15462,2.15299 -2.6148,0.84351 -4.97352,1.53366 -5.24159,1.53366 -0.26807,0 -1.04891,-0.95054 -1.73518,-2.11231 z m 9.123,-0.83492 c 1.43439,-0.45951 5.18558,-1.14087 8.33598,-1.51414 3.15039,-0.37326 7.67078,-1.45019 10.04529,-2.39318 l 4.31731,-1.71453 2.44407,-6.70624 c 1.34424,-3.68843 2.99176,-8.38279 3.66117,-10.43192 0.6694,-2.04913 1.50394,-4.04423 1.85452,-4.43357 0.35059,-0.38933 0.63743,-1.1428 0.63743,-1.67438 0,-0.53157 0.91924,-2.97935 2.04275,-5.4395 1.7995,-3.94035 2.29519,-4.47301 4.16258,-4.47301 3.77847,0 13.00075,-3.12236 15.63453,-5.29335 2.49223,-2.05431 2.57001,-2.28438 2.9258,-8.65417 0.3731,-6.67994 -0.16924,-9.15174 -2.00801,-9.15174 -0.56888,0 -2.10083,-0.89741 -3.40435,-1.99424 -3.56316,-2.9982 -8.56045,-3.16552 -17.64947,-0.59094 -4.0108,1.13611 -8.55667,2.72297 -10.10194,3.52635 -2.20631,1.14704 -3.88628,1.39763 -7.82395,1.16704 -4.49433,-0.26319 -5.57729,-0.66264 -10.44247,-3.85167 -8.58592,-5.62793 -14.4598,-7.95446 -22.23088,-8.80524 -7.58213,-0.83009 -12.53164,0.11621 -17.18811,3.2862 -2.20348,1.50006 -2.45947,2.0439 -2.46404,5.23462 -0.004,2.483 0.67148,4.90092 2.23033,7.98898 2.61307,5.17646 2.75444,6.3967 0.80027,6.90773 -0.92501,0.24189 -1.76432,1.53091 -2.36116,3.62631 -0.50931,1.78805 -1.61051,3.80856 -2.44711,4.49001 -1.4829,1.2079 -1.48964,1.33886 -0.26867,5.21597 1.9959,6.33782 5.0218,18.69264 5.0218,20.50411 0,2.33059 1.44924,5.47235 3.6331,7.87609 2.24368,2.46959 5.56049,2.69321 8.2891,0.55886 3.27002,-2.55785 5.06699,-1.94221 10.38977,3.55952 5.31737,5.49613 4.9988,5.41145 11.96436,3.18003 z m 131.88933,-18.28918 0,-69.67036 78.23944,0 78.23943,0 0,69.67036 0,69.67035 -78.23943,0 -78.23944,0 0,-69.67035 z m 155.73373,0 0,-68.92522 -77.49429,0 -77.4943,0 0,68.92522 0,68.92521 77.4943,0 77.49429,0 0,-68.92521 z M 464.4941,638.18766 c -1.90837,-2.10872 -1.5897,-5.82077 0.62421,-7.27138 2.1681,-1.42059 5.19348,-0.93574 5.91641,0.94817 0.45765,1.19261 0.40323,1.193 -0.90791,0.007 -2.7368,-2.47706 -5.37563,-1.05651 -5.37563,2.89356 0,2.50003 0.90355,3.6443 3.35311,4.24641 1.19457,0.29363 1.1066,0.38346 -0.44336,0.45275 -1.0635,0.0475 -2.48858,-0.52676 -3.16683,-1.27622 z m 97.49752,-4.34552 c -0.81966,-0.17564 -2.83342,-0.80381 -4.47503,-1.39593 -4.87042,-1.75673 -20.51512,-3.4276 -44.33148,-4.73466 -14.00739,-0.76873 -17.46741,-1.3111 -23.8444,-3.73769 -6.34671,-2.41506 -7.46157,-4.78659 -5.96893,-12.69724 0.5187,-2.74901 0.80362,-7.18861 0.63314,-9.86577 -0.27957,-4.39071 -0.60763,-5.22465 -3.34858,-8.51244 -2.87481,-3.44834 -6.39574,-10.51876 -8.46639,-17.00144 -1.34146,-4.19979 -0.38535,-15.76066 1.90276,-23.00734 1.08384,-3.43262 1.83553,-7.60848 1.83553,-10.19693 0,-3.78663 -1.40026,-12.46321 -2.6772,-16.58898 -0.2833,-0.91533 0.16614,-1.51995 1.50946,-2.03069 1.05209,-0.4 1.91288,-1.07088 1.91288,-1.49085 0,-0.45965 2.44698,-0.76358 6.14766,-0.76358 3.38121,0 8.49472,-0.49714 11.36334,-1.10477 6.66558,-1.41188 10.35701,-1.41452 13.29959,-0.01 2.87948,1.37486 5.4244,5.02423 6.10327,8.75196 0.49167,2.69988 0.61303,2.7938 3.59277,2.78063 3.67301,-0.0162 13.73364,-3.99892 18.65505,-7.38493 5.18478,-3.56723 6.81775,-3.07152 10.59242,3.21549 3.73494,6.22084 7.67665,10.52779 11.15154,12.18484 2.4455,1.16619 2.72802,1.15807 4.99266,-0.14344 3.04128,-1.74784 12.07528,-9.76375 22.09299,-19.6032 4.93506,-4.84724 8.04516,-7.38661 8.49538,-6.93638 0.39063,0.39063 0.85216,2.49036 1.02563,4.66607 0.17347,2.1757 0.77571,5.12942 1.33829,6.56381 6.15738,15.69888 7.77933,20.13556 8.20036,22.43126 0.48085,2.62184 0.40758,2.72719 -3.1094,4.47082 l -3.60185,1.78571 0.18364,5.21597 c 0.65535,18.61313 0.68155,18.29422 -1.89118,23.01787 -2.63665,4.84097 -2.91518,7.22221 -1.33688,11.42965 0.57961,1.54514 1.2473,6.41809 1.48375,10.82877 0.36905,6.88433 0.21994,8.57183 -1.05347,11.9222 -0.81585,2.14653 -1.48535,4.74106 -1.48776,5.76562 -0.003,1.25206 -1.20715,3.02334 -3.67267,5.40225 -2.01754,1.94667 -4.03215,3.5394 -4.47691,3.5394 -0.44476,0 -1.39089,0.28806 -2.10253,0.64012 -5.23259,2.58872 -14.98081,3.81192 -20.66745,2.59335 z m 15.54788,-1.47564 c 2.10412,-0.6725 4.40793,-1.51078 5.11957,-1.86285 0.71164,-0.35206 1.7788,-0.64012 2.37148,-0.64012 0.59268,0 1.29162,-0.6743 1.5532,-1.49845 0.26157,-0.82414 1.4529,-2.00383 2.64739,-2.62153 1.32917,-0.68734 2.33242,-1.91287 2.58574,-3.15866 0.22766,-1.11956 1.07236,-4.04745 1.87712,-6.5064 1.21935,-3.72577 1.39011,-5.71259 1.02466,-11.9222 -0.24119,-4.09825 -0.91338,-8.93618 -1.49375,-10.75095 -1.54372,-4.82703 -1.32281,-6.79839 1.30931,-11.68456 2.10048,-3.89925 2.36253,-5.05514 2.34665,-10.35054 -0.01,-3.2786 -0.27606,-8.68216 -0.59161,-12.00791 l -0.57373,-6.04682 3.82414,-1.77713 c 3.726,-1.73151 3.81289,-1.84406 3.3856,-4.3851 -0.39135,-2.32741 -5.34171,-15.74927 -8.18544,-22.19312 -0.59393,-1.34584 -1.08501,-3.86068 -1.09128,-5.58854 -0.0189,-5.18814 -0.94533,-5.7992 -4.18519,-2.76037 -1.52423,1.42965 -3.63455,3.59199 -4.68961,4.80519 -1.05506,1.2132 -2.72076,2.88976 -3.70156,3.72569 -0.9808,0.83592 -2.32204,2.03861 -2.98055,2.67263 -4.30785,4.14771 -13.50161,11.87915 -15.47126,13.01046 -2.03631,1.16961 -2.66179,1.2224 -4.66286,0.39353 -3.23833,-1.34136 -7.82885,-5.99778 -11.26823,-11.43001 -1.60779,-2.53936 -3.27859,-5.03616 -3.71291,-5.54844 -1.31811,-1.55473 -3.72938,-1.05706 -7.34815,1.51661 -4.75268,3.38012 -14.88421,7.23875 -19.00664,7.23875 l -3.34516,0 -0.53051,-3.5394 c -0.60793,-4.05592 -3.88272,-7.94299 -7.44512,-8.8371 -1.18805,-0.29818 -4.84595,-0.0919 -8.12867,0.45835 -3.28271,0.55027 -8.95156,1.13484 -12.59744,1.29905 -4.405,0.19839 -6.98515,0.65484 -7.69088,1.36057 -0.58411,0.58411 -1.56363,1.06202 -2.17672,1.06202 -0.7186,0 -0.97128,0.46335 -0.7111,1.30399 1.27709,4.12623 2.67739,12.80268 2.67739,16.58956 0,2.58845 -0.75169,6.76431 -1.83553,10.19693 -2.28811,7.24668 -3.24423,18.80755 -1.90276,23.00734 2.07693,6.5024 5.59547,13.55767 8.49498,17.03398 l 3.06725,3.6774 -0.0424,6.75453 c -0.0233,3.71498 -0.3207,8.6728 -0.66086,11.01738 -0.59859,4.12581 -0.54665,4.32943 1.61569,6.33366 4.16451,3.86002 10.60698,5.31029 27.77535,6.2525 23.81636,1.30705 39.46106,2.97792 44.33148,4.73465 4.22976,1.52565 5.33004,1.70454 11.08126,1.80172 2.93246,0.0496 6.74876,-0.43543 8.94165,-1.13629 z"
       id="path3000"
       inkscape:connector-curvature="0" />
    <path
       style="fill:#000000"
       d="m 86.22134,577.33134 0,-69.67035 78.23943,0 78.23944,0 0,69.67035 0,69.67036 -78.23944,0 -78.23943,0 0,-69.67036 z m 155.73373,0 0,-68.92521 -77.4943,0 -77.49429,0 0,68.92521 0,68.92522 77.49429,0 77.4943,0 0,-68.92522 z M 99.13709,638.24633 c -0.47328,-1.12702 -1.08224,-2.80845 -1.35325,-3.73651 -0.271,-0.92806 -0.80006,-1.49744 -1.17569,-1.26528 -0.37562,0.23214 -0.47461,-0.12084 -0.21998,-0.78441 0.25464,-0.66358 0.69743,-0.93247 0.98398,-0.59756 0.94524,1.1048 3.68031,8.43289 3.1474,8.43289 -0.28707,0 -0.90917,-0.92211 -1.38246,-2.04913 z m 8.74398,-53.01979 c -2.01789,-2.83385 -2.00728,-7.71081 0.0286,-13.15219 1.83113,-4.89412 1.59547,-6.88573 -1.41986,-11.99974 -2.03278,-3.44762 -2.18553,-4.28622 -2.55784,-14.04338 -0.42713,-11.19335 -0.35792,-11.47965 3.89836,-16.12718 1.46689,-1.60174 2.65473,-2.08327 5.58853,-2.2655 3.21231,-0.19953 3.75849,-0.46244 3.96379,-1.90798 0.19791,-1.39347 0.70117,-1.67533 2.98055,-1.66928 1.50835,0.004 4.53613,0.84229 6.72841,1.86285 2.19227,1.02056 4.26825,1.85556 4.61328,1.85556 0.34503,0 2.37595,1.67656 4.51315,3.72569 2.82772,2.71119 4.47093,3.72569 6.03461,3.72569 2.39855,0 7.25823,-2.24578 8.75045,-4.0438 1.98561,-2.39251 5.06703,-1.47037 13.25076,3.96541 5.43732,3.61156 8.30894,6.44332 10.21644,10.07458 l 1.44044,2.74214 -2.18557,2.08822 c -1.83418,1.75245 -12.65204,7.23896 -16.80881,8.52494 -0.83635,0.25874 -1.37165,1.66252 -1.73113,4.53968 -0.6018,4.81669 -2.78246,7.89928 -7.17229,10.1388 -2.49574,1.27323 -3.80087,1.39458 -10.55457,0.98135 l -7.70667,-0.47153 -3.13675,3.74649 c -1.7252,2.06057 -3.13674,4.05492 -3.13674,4.4319 0,1.26532 -8.79344,5.44144 -11.45778,5.44144 -2.01756,0 -2.9428,-0.48374 -4.13936,-2.16416 z m 10.11476,-0.38615 c 1.98623,-1.05735 5.10223,-3.87977 7.52176,-6.81307 l 4.13075,-5.00792 7.76479,0.4751 c 6.38463,0.39064 8.18716,0.25879 10.14112,-0.74182 4.27241,-2.18788 5.93569,-4.47046 6.81979,-9.35908 0.46533,-2.57306 1.30069,-4.7971 1.91642,-5.10222 0.60033,-0.29749 4.27697,-1.97004 8.17031,-3.71677 3.89335,-1.74674 7.86352,-3.91751 8.82261,-4.82393 l 1.74379,-1.64804 -1.55815,-3.05423 c -1.87823,-3.68166 -3.54441,-5.32657 -9.30237,-9.18367 -8.0408,-5.38631 -11.17885,-6.32374 -13.16355,-3.93232 -1.49635,1.80299 -6.3545,4.04379 -8.76711,4.04379 -1.56245,0 -3.28252,-1.0319 -6.17707,-3.70572 -2.20639,-2.03814 -4.34694,-3.71777 -4.75676,-3.7325 -0.40983,-0.0147 -2.4217,-0.8515 -4.47083,-1.85951 -4.90509,-2.41289 -8.37816,-2.49381 -8.70354,-0.20277 -0.20735,1.46001 -0.7838,1.72468 -4.46294,2.04913 -3.82825,0.33759 -4.44027,0.64448 -6.51995,3.26929 -1.26232,1.5932 -2.34258,3.26976 -2.40058,3.72569 -0.058,0.45593 -0.0185,5.33102 0.0878,10.83353 0.18456,9.55417 0.2898,10.16148 2.33769,13.48972 3.05192,4.96 3.33455,7.28792 1.485,12.23128 -4.28517,11.45315 0.22597,17.61836 9.34102,12.76604 z m 150.78419,-8.25418 0,-69.67036 78.23944,0 78.23943,0 0,69.67036 0,69.67035 -78.23943,0 -78.23944,0 0,-69.67035 z m 155.73373,0 0,-68.92522 -77.49429,0 -77.4943,0 0,68.92522 0,68.92521 77.4943,0 77.49429,0 0,-68.92521 z m -146.79208,58.86585 c 0,-6.29551 1.28829,-6.29426 1.61298,0.002 0.18118,3.51304 -0.006,4.84452 -0.68156,4.84339 -0.64944,-7.5e-4 -0.93142,-1.46784 -0.93142,-4.84496 z m 5.44766,3.18723 c 0.28504,-0.81124 -0.0983,-1.66834 -1.04162,-2.32909 -1.33153,-0.93263 -1.35925,-1.09668 -0.25682,-1.51972 0.79317,-0.30437 1.09708,-1.00478 0.84847,-1.95545 -0.21304,-0.81467 -0.0581,-1.48122 0.34419,-1.48122 0.40235,0 0.65815,0.92211 0.56845,2.04913 -0.0897,1.12702 0.0972,2.65846 0.41534,3.4032 0.35479,0.8305 0.20967,1.69486 -0.3753,2.23542 -0.75303,0.69585 -0.85882,0.61119 -0.50271,-0.40227 z m 30.13762,-42.92898 c -1.96077,-3.31931 -7.78955,-8.3215 -9.67511,-8.30304 -0.93126,0.009 -2.53148,0.67228 -3.55605,1.4737 -2.88596,2.25743 -6.02646,1.91767 -8.60919,-0.93142 -2.98055,-3.28793 -4.05814,-5.36734 -4.05814,-7.83092 0,-2.14752 -2.8417,-13.99902 -4.99977,-20.85194 -1.19718,-3.80162 -1.18834,-3.9524 0.32779,-5.58853 0.85699,-0.92482 1.94647,-3.14397 2.42104,-4.93145 0.56667,-2.13432 1.35691,-3.37915 2.30204,-3.62631 1.8982,-0.49639 1.83831,-0.94463 -0.83337,-6.23718 -1.82384,-3.61302 -2.22842,-5.25898 -2.04913,-8.33643 0.19819,-3.40146 0.50323,-4.0226 2.70092,-5.49958 9.7445,-6.5489 24.52094,-4.54312 39.6679,5.38459 4.9924,3.27215 6.04356,3.66257 10.57534,3.92793 3.65405,0.21396 5.50629,-0.0162 6.76422,-0.8404 0.95276,-0.62427 5.39462,-2.19951 9.87081,-3.50054 10.10233,-2.93631 15.22278,-2.87582 18.90592,0.22334 1.31277,1.10462 2.81212,2.0084 3.3319,2.0084 0.51978,0 1.46744,0.58679 2.10592,1.30399 0.94309,1.05936 1.08481,2.60299 0.75545,8.22847 l -0.40543,6.92449 -2.87529,2.46114 c -2.87296,2.45916 -11.8203,5.67144 -15.79693,5.67144 -1.53602,0 -2.21798,0.72914 -3.79,4.05212 -1.05433,2.22866 -1.91696,4.41273 -1.91696,4.8535 0,0.44076 -0.31133,1.38364 -0.69185,2.09527 -0.38051,0.71163 -2.07295,5.14997 -3.76098,9.86296 -1.68802,4.713 -3.40612,9.43538 -3.818,10.49419 -0.9392,2.41437 -7.89846,5.03612 -15.76166,5.93787 -2.97024,0.34063 -7.53982,1.30947 -10.15462,2.15299 -2.6148,0.84351 -4.97352,1.53366 -5.24159,1.53366 -0.26807,0 -1.04891,-0.95054 -1.73518,-2.11231 z m 9.12297,-0.83492 c 1.43439,-0.45951 5.18558,-1.14087 8.33598,-1.51414 3.15039,-0.37326 7.67078,-1.45019 10.04529,-2.39318 l 4.31731,-1.71453 2.44407,-6.70624 c 1.34424,-3.68843 2.99176,-8.38279 3.66117,-10.43192 0.6694,-2.04913 1.50394,-4.04423 1.85452,-4.43357 0.35059,-0.38933 0.63743,-1.1428 0.63743,-1.67438 0,-0.53157 0.91924,-2.97935 2.04275,-5.4395 1.7995,-3.94035 2.29519,-4.47301 4.16258,-4.47301 3.77847,0 13.00075,-3.12236 15.63453,-5.29335 2.49223,-2.05431 2.57001,-2.28438 2.9258,-8.65417 0.3731,-6.67994 -0.16924,-9.15174 -2.00801,-9.15174 -0.56888,0 -2.10083,-0.89741 -3.40435,-1.99424 -3.56316,-2.9982 -8.56045,-3.16552 -17.64947,-0.59094 -4.0108,1.13611 -8.55667,2.72297 -10.10194,3.52635 -2.20631,1.14704 -3.88628,1.39763 -7.82395,1.16704 -4.49433,-0.26319 -5.57729,-0.66264 -10.44247,-3.85167 -8.58592,-5.62793 -14.4598,-7.95446 -22.23088,-8.80524 -7.58213,-0.83009 -12.53164,0.11621 -17.18811,3.2862 -2.20348,1.50006 -2.45947,2.0439 -2.46404,5.23462 -0.004,2.483 0.67148,4.90092 2.23033,7.98898 2.61307,5.17646 2.75444,6.3967 0.80027,6.90773 -0.92501,0.24189 -1.76432,1.53091 -2.36116,3.62631 -0.50931,1.78805 -1.61051,3.80856 -2.44711,4.49001 -1.4829,1.2079 -1.48964,1.33886 -0.26867,5.21597 1.9959,6.33782 5.0218,18.69264 5.0218,20.50411 0,2.33059 1.44924,5.47235 3.6331,7.87609 2.24368,2.46959 5.56049,2.69321 8.2891,0.55886 3.27002,-2.55785 5.06699,-1.94221 10.38977,3.55952 5.31737,5.49613 4.9988,5.41145 11.96436,3.18003 z m 131.88933,-18.28918 0,-69.67036 78.23944,0 78.23943,0 0,69.67036 0,69.67035 -78.23943,0 -78.23944,0 0,-69.67035 z m 155.73373,0 0,-68.92522 -77.49429,0 -77.4943,0 0,68.92522 0,68.92521 77.4943,0 77.49429,0 0,-68.92521 z m -146.02073,60.77768 c -1.05786,-1.97664 -0.9684,-3.23582 0.3507,-4.93624 1.05755,-1.36327 1.08219,-1.33428 0.42849,0.50414 -0.48847,1.37378 -0.39266,2.53055 0.32403,3.91198 0.55968,1.07878 0.71397,1.96141 0.34287,1.96141 -0.3711,0 -1.02184,-0.64858 -1.44609,-1.44129 z m 97.95937,-3.52175 c -0.81966,-0.17564 -2.83342,-0.80381 -4.47503,-1.39593 -4.87042,-1.75673 -20.51512,-3.4276 -44.33148,-4.73466 -14.00739,-0.76873 -17.46741,-1.3111 -23.8444,-3.73769 -6.34671,-2.41506 -7.46157,-4.78659 -5.96893,-12.69724 0.5187,-2.74901 0.80362,-7.18861 0.63314,-9.86577 -0.27957,-4.39071 -0.60763,-5.22465 -3.34858,-8.51244 -2.87481,-3.44834 -6.39574,-10.51876 -8.46639,-17.00144 -1.34146,-4.19979 -0.38535,-15.76066 1.90276,-23.00734 1.08384,-3.43262 1.83553,-7.60848 1.83553,-10.19693 0,-3.78663 -1.40026,-12.46321 -2.6772,-16.58898 -0.2833,-0.91533 0.16614,-1.51995 1.50946,-2.03069 1.05209,-0.4 1.91288,-1.07088 1.91288,-1.49085 0,-0.45965 2.44698,-0.76358 6.14766,-0.76358 3.38121,0 8.49472,-0.49714 11.36334,-1.10477 6.66558,-1.41188 10.35701,-1.41452 13.29959,-0.01 2.87948,1.37486 5.4244,5.02423 6.10327,8.75196 0.49167,2.69988 0.61303,2.7938 3.59277,2.78063 3.67301,-0.0162 13.73364,-3.99892 18.65505,-7.38493 5.18478,-3.56723 6.81775,-3.07152 10.59242,3.21549 3.73494,6.22084 7.67665,10.52779 11.15154,12.18484 2.4455,1.16619 2.72802,1.15807 4.99266,-0.14344 3.04128,-1.74784 12.07528,-9.76375 22.09299,-19.6032 4.93506,-4.84724 8.04516,-7.38661 8.49538,-6.93638 0.39063,0.39063 0.85216,2.49036 1.02563,4.66607 0.17347,2.1757 0.77571,5.12942 1.33829,6.56381 6.15738,15.69888 7.77933,20.13556 8.20036,22.43126 0.48085,2.62184 0.40758,2.72719 -3.1094,4.47082 l -3.60185,1.78571 0.18364,5.21597 c 0.65535,18.61313 0.68155,18.29422 -1.89118,23.01787 -2.63665,4.84097 -2.91518,7.22221 -1.33688,11.42965 0.57961,1.54514 1.2473,6.41809 1.48375,10.82877 0.36905,6.88433 0.21994,8.57183 -1.05347,11.9222 -0.81585,2.14653 -1.48535,4.74106 -1.48776,5.76562 -0.003,1.25206 -1.20715,3.02334 -3.67267,5.40225 -2.01754,1.94667 -4.03215,3.5394 -4.47691,3.5394 -0.44476,0 -1.39089,0.28806 -2.10253,0.64012 -5.23259,2.58872 -14.98081,3.81192 -20.66745,2.59335 z m 15.54788,-1.47564 c 2.10412,-0.6725 4.40793,-1.51078 5.11957,-1.86285 0.71164,-0.35206 1.7788,-0.64012 2.37148,-0.64012 0.59268,0 1.29162,-0.6743 1.5532,-1.49845 0.26157,-0.82414 1.4529,-2.00383 2.64739,-2.62153 1.32917,-0.68734 2.33242,-1.91287 2.58574,-3.15866 0.22766,-1.11956 1.07236,-4.04745 1.87712,-6.5064 1.21935,-3.72577 1.39011,-5.71259 1.02466,-11.9222 -0.24119,-4.09825 -0.91338,-8.93618 -1.49375,-10.75095 -1.54372,-4.82703 -1.32281,-6.79839 1.30931,-11.68456 2.10048,-3.89925 2.36253,-5.05514 2.34665,-10.35054 -0.01,-3.2786 -0.27606,-8.68216 -0.59161,-12.00791 l -0.57373,-6.04682 3.82414,-1.77713 c 3.726,-1.73151 3.81289,-1.84406 3.3856,-4.3851 -0.39135,-2.32741 -5.34171,-15.74927 -8.18544,-22.19312 -0.59393,-1.34584 -1.08501,-3.86068 -1.09128,-5.58854 -0.0189,-5.18814 -0.94533,-5.7992 -4.18519,-2.76037 -1.52423,1.42965 -3.63455,3.59199 -4.68961,4.80519 -1.05506,1.2132 -2.72076,2.88976 -3.70156,3.72569 -0.9808,0.83592 -2.32204,2.03861 -2.98055,2.67263 -4.30785,4.14771 -13.50161,11.87915 -15.47126,13.01046 -2.03631,1.16961 -2.66179,1.2224 -4.66286,0.39353 -3.23833,-1.34136 -7.82885,-5.99778 -11.26823,-11.43001 -1.60779,-2.53936 -3.27859,-5.03616 -3.71291,-5.54844 -1.31811,-1.55473 -3.72938,-1.05706 -7.34815,1.51661 -4.75268,3.38012 -14.88421,7.23875 -19.00664,7.23875 l -3.34516,0 -0.53051,-3.5394 c -0.60793,-4.05592 -3.88272,-7.94299 -7.44512,-8.8371 -1.18805,-0.29818 -4.84595,-0.0919 -8.12867,0.45835 -3.28271,0.55027 -8.95156,1.13484 -12.59744,1.29905 -4.405,0.19839 -6.98515,0.65484 -7.69088,1.36057 -0.58411,0.58411 -1.56363,1.06202 -2.17672,1.06202 -0.7186,0 -0.97128,0.46335 -0.7111,1.30399 1.27709,4.12623 2.67739,12.80268 2.67739,16.58956 0,2.58845 -0.75169,6.76431 -1.83553,10.19693 -2.28811,7.24668 -3.24423,18.80755 -1.90276,23.00734 2.07693,6.5024 5.59547,13.55767 8.49498,17.03398 l 3.06725,3.6774 -0.0424,6.75453 c -0.0233,3.71498 -0.3207,8.6728 -0.66086,11.01738 -0.59859,4.12581 -0.54665,4.32943 1.61569,6.33366 4.16451,3.86002 10.60698,5.31029 27.77535,6.2525 23.81636,1.30705 39.46106,2.97792 44.33148,4.73465 4.22976,1.52565 5.33004,1.70454 11.08126,1.80172 2.93246,0.0496 6.74876,-0.43543 8.94165,-1.13629 z"
       id="path2998"
       inkscape:connector-curvature="0" />
    <rect
       y="620.2193"
       x="92.14286"
       height="22.857141"
       width="15.714286"
       id="rect3010"
       style="fill:#ffffff;stroke:#ffffff;stroke-width:2;stroke-miterlimit:4;stroke-dasharray:none;stroke-dashoffset:0" />
    <rect
       y="620.13263"
       x="274.28571"
       height="22.857141"
       width="15.714286"
       id="rect3010-7"
       style="fill:#ffffff;stroke:#ffffff;stroke-width:2;stroke-miterlimit:4;stroke-dasharray:none;stroke-dashoffset:0" />
    <rect
       y="620.2193"
       x="457.85715"
       height="22.857141"
       width="15.714286"
       id="rect3010-8"
       style="fill:#ffffff;stroke:#ffffff;stroke-width:2;stroke-miterlimit:4;stroke-dasharray:none;stroke-dashoffset:0" />
    <g
       id="g3064"
       style="fill:#000000;fill-opacity:1"
       transform="matrix(1.8765243,0,0,1.8765243,-330.03246,387.15428)">
      <use
         id="use3066"
         y="134.765"
         x="223.43201"
         xlink:href="#textext-002e61de-0"
         width="744.09448"
         height="1052.3622" />
    </g>
    <g
       id="g3068"
       style="fill:#000000;fill-opacity:1"
       transform="matrix(1.8765243,0,0,1.8765243,-167.60389,386.84641)">
      <use
         id="use3070"
         y="134.765"
         x="234.2215"
         xlink:href="#textext-002e61de-1"
         width="744.09448"
         height="1052.3622" />
    </g>
    <g
       id="g3072"
       style="fill:#000000;fill-opacity:1"
       transform="matrix(1.8765243,0,0,1.8765243,-3.3181783,386.84641)">
      <use
         id="use3074"
         y="134.765"
         x="245.60376"
         xlink:href="#textext-002e61de-2"
         width="744.09448"
         height="1052.3622" />
    </g>
  </g>
</svg>
